<svg width="38" height="38" viewBox="0 0 38 38" fill="none" xmlns="http://www.w3.org/2000/svg">
<g id="Frame 48097390">
<path id="Vector" d="M30.5038 9.94502C30.3533 9.62715 30.1912 9.31787 30.0173 9.01719C27.854 5.28694 23.8819 3 19.6038 3H19.4366C18.6241 3 17.825 3.08248 17.046 3.24055V3.24227C15.7102 3.51374 14.4363 4.01203 13.2761 4.70618C12.5957 5.1134 11.9554 5.58591 11.3636 6.122C10.2034 7.17355 9.23379 8.46221 8.53665 9.94502C7.11899 12.9588 6.96017 16.2973 7.97828 19.311C8.43467 20.6581 9.12679 21.9416 10.0479 23.0979L15.9426 30.5052L15.9727 30.4674C16.5227 29.7732 16.8989 28.9863 17.1028 28.1615C17.372 27.0619 17.3352 25.8986 16.9841 24.8162C16.7668 24.1443 16.4308 23.5034 15.9727 22.9296L13.6774 20.0464C11.8501 17.7491 11.4974 14.7749 12.7345 12.0928C13.9515 9.46392 16.5695 7.82131 19.4049 7.82131H19.6372C22.4709 7.82131 25.0889 9.46392 26.3043 12.0945C26.3076 12.1031 26.311 12.11 26.3143 12.1186C26.3594 12.2148 26.4029 12.3144 26.443 12.4124C26.8392 13.3729 27.0348 14.3677 27.0348 15.3488C27.0348 17.0189 26.4681 18.6564 25.3614 20.0464L18.0624 29.2113C17.1379 30.3694 17.1413 32.0361 18.0691 33.1924L19.5202 35L28.9925 23.0979C31.9733 19.3557 32.555 14.3058 30.5038 9.94502Z" fill="url(#paint0_linear_1224_142)" style=""/>
</g>
<defs>
<linearGradient id="paint0_linear_1224_142" x1="10.4484" y1="25.6762" x2="29.0893" y2="7.53906" gradientUnits="userSpaceOnUse">
<stop stop-color="#D19D00" style="stop-color:#D19D00;stop-color:color(display-p3 0.8196 0.6157 0.0000);stop-opacity:1;"/>
<stop offset="1" stop-color="#FFCF40" style="stop-color:#FFCF40;stop-color:color(display-p3 1.0000 0.8118 0.2510);stop-opacity:1;"/>
</linearGradient>
</defs>
</svg>
