<svg width="121" height="24" viewBox="0 0 121 24" fill="none" xmlns="http://www.w3.org/2000/svg">
<g id="Layer_1-2">
<path id="Vector" d="M56.4025 6.0758C56.2919 5.84839 56.1727 5.62713 56.0448 5.41202C54.4542 2.74343 51.5337 1.10736 48.3881 1.10736H48.2652C47.6678 1.10736 47.0803 1.16637 46.5075 1.27945V1.28068C45.5253 1.47489 44.5887 1.83136 43.7356 2.32796C43.2353 2.61928 42.7646 2.95731 42.3294 3.34082C41.4764 4.09309 40.7634 5.01499 40.2508 6.0758C39.2085 8.23181 39.0917 10.6201 39.8403 12.7762C40.1759 13.7399 40.6847 14.6581 41.362 15.4853L45.6962 20.7844L45.7183 20.7574C46.1227 20.2608 46.3993 19.6978 46.5493 19.1078C46.7472 18.3211 46.7201 17.4889 46.462 16.7145C46.3022 16.2339 46.0551 15.7754 45.7183 15.3649L44.0306 13.3023C42.6871 11.6588 42.4278 9.53108 43.3374 7.6123C44.2322 5.73161 46.1571 4.5565 48.2419 4.5565H48.4127C50.4962 4.5565 52.4212 5.73161 53.3148 7.61352C53.3172 7.61967 53.3197 7.62459 53.3222 7.63073C53.3553 7.69956 53.3873 7.77086 53.4168 7.84093C53.7081 8.52805 53.8519 9.23976 53.8519 9.94163C53.8519 11.1364 53.4352 12.3078 52.6215 13.3023L47.2548 19.8588C46.5751 20.6873 46.5775 21.8796 47.2597 22.7069L48.3267 24L55.2913 15.4853C57.483 12.8081 57.9108 9.1955 56.4025 6.0758Z" fill="url(#paint0_linear_1360_22)" style=""/>
<path id="Vector_2" d="M0 1.54111H3.05507L8.39368 16.2918L13.1525 3.14422C13.5008 2.18206 14.4144 1.54111 15.4377 1.54111H16.7049L9.90715 19.5388H6.82493L0 1.54111Z" fill="white" style="fill:white;fill-opacity:1;"/>
<path id="Vector_3" d="M16.7582 12.7416C16.7582 8.61335 19.7851 5.58641 24.0782 5.58641C28.3713 5.58641 31.3435 8.61335 31.3435 12.7416V13.7046H19.5102C19.8952 16.1264 21.7118 17.475 24.0782 17.475C25.5186 17.475 26.6094 17.1069 27.3957 16.3252C27.77 15.9531 28.2737 15.7409 28.8015 15.7409H30.7659C29.7199 18.2732 27.2434 19.8967 24.0782 19.8967C19.7851 19.8967 16.7582 16.8693 16.7582 12.7416ZM28.5915 11.3653C28.0687 9.19139 26.2798 8.00816 24.0782 8.00816C21.8218 8.00816 20.1154 9.21903 19.5926 11.3653H28.5915Z" fill="white" style="fill:white;fill-opacity:1;"/>
<path id="Vector_4" d="M33.9839 0H36.5986V17.53C36.5986 18.6394 35.6992 19.5389 34.5898 19.5389H33.9839V0Z" fill="white" style="fill:white;fill-opacity:1;"/>
<path id="Vector_5" d="M59.1077 12.6586C59.1077 8.14588 62.4648 5.58641 66.015 5.58641C68.2166 5.58641 70.088 6.57712 71.0787 8.33839V0C72.5225 1.68155e-08 73.6929 1.17044 73.6929 2.61426V12.6315C73.6929 17.0618 70.666 19.8967 66.4553 19.8967C62.1346 19.8967 59.1077 16.9246 59.1077 12.6586ZM71.0787 12.7416C71.0787 9.98959 69.2073 8.00816 66.4277 8.00816C63.6209 8.00816 61.7496 9.98959 61.7496 12.7416C61.7496 15.4936 63.6209 17.475 66.4277 17.475C69.2073 17.475 71.0787 15.4936 71.0787 12.7416Z" fill="white" style="fill:white;fill-opacity:1;"/>
<path id="Vector_6" d="M75.8383 12.8517C75.8383 8.5862 78.8652 5.58641 83.1859 5.58641C87.4514 5.58641 90.4235 8.50327 90.4235 12.8517V17.1448C90.4235 18.467 89.3517 19.5389 88.0294 19.5389V16.5667C87.1212 18.7683 85.1121 19.8967 82.7456 19.8967C79.1954 19.8967 75.8383 17.3373 75.8383 12.8517ZM87.8369 12.7416C87.8369 9.98959 85.9656 8.00816 83.1583 8.00816C80.3515 8.00816 78.4802 9.98959 78.4802 12.7416C78.4802 15.4936 80.3515 17.475 83.1583 17.475C85.9656 17.475 87.8369 15.4936 87.8369 12.7416Z" fill="white" style="fill:white;fill-opacity:1;"/>
<path id="Vector_7" d="M93.1188 14.3928V1.12794H95.733V5.94429H103.218C103.218 7.26652 102.147 8.33839 100.824 8.33839H95.733V14.3928C95.733 16.5391 96.8615 17.475 98.5675 17.475C100.274 17.475 101.43 16.5667 101.43 14.3928V14.0902H104.017V14.3928C104.017 18.0802 101.815 19.8967 98.5675 19.8967C95.3204 19.8967 93.1188 18.0802 93.1188 14.3928Z" fill="white" style="fill:white;fill-opacity:1;"/>
<path id="Vector_8" d="M105.639 12.7416C105.639 8.61335 108.666 5.58641 112.959 5.58641C117.252 5.58641 120.224 8.61335 120.224 12.7416V13.7046H108.391C108.776 16.1264 110.593 17.475 112.959 17.475C114.371 17.475 115.448 17.1211 116.23 16.3706C116.641 15.9764 117.178 15.7409 117.747 15.7409H119.646C118.601 18.2732 116.124 19.8967 112.959 19.8967C108.666 19.8967 105.639 16.8693 105.639 12.7416ZM117.472 11.3653C116.95 9.19139 115.161 8.00816 112.959 8.00816C110.703 8.00816 108.996 9.21903 108.474 11.3653H117.472Z" fill="white" style="fill:white;fill-opacity:1;"/>
</g>
<defs>
<linearGradient id="paint0_linear_1360_22" x1="41.6565" y1="17.3298" x2="54.9971" y2="3.98916" gradientUnits="userSpaceOnUse">
<stop stop-color="#D19D00" style="stop-color:#D19D00;stop-color:color(display-p3 0.8196 0.6157 0.0000);stop-opacity:1;"/>
<stop offset="1" stop-color="#FFCF40" style="stop-color:#FFCF40;stop-color:color(display-p3 1.0000 0.8118 0.2510);stop-opacity:1;"/>
</linearGradient>
</defs>
</svg>
